# xmcd
#
# Track frame offsets:
# 150
# 17781
# 31131
# 46507
# 66848
# 77959
# 91823
# 105379
# 124319
# 139615
# 161335
# 172068
# 184231
# 198922
# 210396
# 225234
# 236886
# 249913
# 270013
# 283548
#
# Disc length: 3939 seconds
#
#
# Revision: 0
# Processed by: cddbd v1.5.2PL0 Copyright (c) Steve Scherf et al.
# Submitted via: FreeRIP 2.951 
#
DISCID=fb0f6114
DTITLE=Aldemar Dutra - Em foco
DYEAR=1900
DGENRE=Blues
TTITLE0=Alma
TTITLE1=Amor de pobre
TTITLE2=Balada triste
TTITLE3=Bandolis
TTITLE4=Benditas és
TTITLE5=Brigas
TTITLE6=Conhecimento no meu ombro
TTITLE7=Como desejo o seu amor
TTITLE8=Eu nunca mais vou te esquecer
TTITLE9=Eu voltarei
TTITLE10=Ex amor
TTITLE11=Fujo de ti
TTITLE12=Gente humilde
TTITLE13=La paloma
TTITLE14=Malandrinha
TTITLE15=Maria Helena
TTITLE16=Meu velho
TTITLE17=Minha prece de amor
TTITLE18=Modinha
TTITLE19=O fim
EXTD=
EXTT0=
EXTT1=
EXTT2=
EXTT3=
EXTT4=
EXTT5=
EXTT6=
EXTT7=
EXTT8=
EXTT9=
EXTT10=
EXTT11=
EXTT12=
EXTT13=
EXTT14=
EXTT15=
EXTT16=
EXTT17=
EXTT18=
EXTT19=
PLAYORDER=
